<?xml version="1.0" standalone="no"?>
<!DOCTYPE svg PUBLIC "-//W3C//DTD SVG 20010904//EN"
 "http://www.w3.org/TR/2001/REC-SVG-20010904/DTD/svg10.dtd">
<svg version="1.0" xmlns="http://www.w3.org/2000/svg"
 width="512.000000pt" height="512.000000pt" viewBox="0 0 512.000000 512.000000"
 preserveAspectRatio="xMidYMid meet">

<g transform="translate(0.000000,512.000000) scale(0.100000,-0.100000)"
fill="#000000" stroke="none">
<path d="M1521 5094 c-20 -26 -21 -38 -21 -365 0 -386 5 -433 90 -894 75 -405
128 -726 143 -860 l13 -120 287 -3 287 -2 0 38 c0 21 5 43 12 50 8 8 63 12
180 12 155 0 168 -1 178 -19 6 -12 10 -110 10 -249 0 -183 -3 -232 -14 -241
-9 -8 -68 -11 -187 -9 l-174 3 -3 43 -3 42 -304 0 -304 0 -40 -127 c-121 -386
-501 -1904 -501 -2002 0 -22 7 -35 26 -48 25 -16 29 -16 108 12 97 35 226 44
344 25 146 -23 380 -110 495 -183 155 -100 305 -156 488 -183 348 -51 803 54
1203 279 113 63 116 67 116 159 0 98 -24 335 -51 493 -50 301 -106 506 -283
1040 -79 237 -149 454 -157 483 l-13 52 -353 0 -353 0 0 165 0 165 334 0 334
0 7 78 c22 259 77 660 155 1141 l50 303 0 348 0 349 -22 15 c-18 13 -55 16
-193 16 -138 0 -175 -3 -193 -16 -22 -15 -22 -16 -22 -340 0 -178 -1 -324 -2
-324 -2 0 -59 -11 -128 -25 -346 -67 -721 -73 -1015 -14 -55 11 -101 21 -102
23 -1 1 -5 152 -9 335 -7 306 -9 334 -26 357 -19 24 -21 24 -193 24 l-174 0
-20 -26z"/>
<path d="M2390 2865 c0 -13 16 -15 118 -13 153 4 151 22 -3 26 -99 2 -115 0
-115 -13z"/>
<path d="M2172 2718 c-34 -34 6 -90 48 -68 35 19 20 80 -20 80 -9 0 -21 -5
-28 -12z"/>
<path d="M2352 2718 c-34 -34 6 -90 48 -68 35 19 20 80 -20 80 -9 0 -21 -5
-28 -12z"/>
<path d="M2532 2718 c-34 -34 6 -90 48 -68 35 19 20 80 -20 80 -9 0 -21 -5
-28 -12z"/>
<path d="M2390 2510 c0 -6 47 -10 120 -10 73 0 120 4 120 10 0 6 -47 10 -120
10 -73 0 -120 -4 -120 -10z"/>
</g>
</svg>
