<?xml version="1.0" standalone="no"?>
<!DOCTYPE svg PUBLIC "-//W3C//DTD SVG 20010904//EN"
 "http://www.w3.org/TR/2001/REC-SVG-20010904/DTD/svg10.dtd">
<svg version="1.0" xmlns="http://www.w3.org/2000/svg"
 width="512.000000pt" height="512.000000pt" viewBox="0 0 512.000000 512.000000"
 preserveAspectRatio="xMidYMid meet">

<g transform="translate(0.000000,512.000000) scale(0.100000,-0.100000)"
fill="#000000" stroke="none">
<path d="M1640 4779 c-123 -26 -348 -83 -455 -116 -86 -25 -261 -100 -620
-265 -275 -127 -508 -238 -519 -247 -24 -21 -46 -65 -46 -91 0 -27 433 -886
462 -917 41 -43 69 -40 326 36 132 39 242 71 246 71 3 0 6 -631 7 -1402 0
-1060 3 -1411 12 -1437 7 -19 25 -44 40 -55 l28 -21 1433 0 c1555 0 1464 -3
1503 54 17 24 18 110 21 1444 1 779 5 1417 8 1417 4 0 114 -32 246 -71 263
-78 288 -80 331 -30 13 15 121 223 241 461 240 477 239 473 179 531 -41 39
-979 469 -1122 514 -226 71 -518 137 -563 128 -43 -8 -75 -46 -94 -109 -69
-241 -244 -438 -464 -523 -285 -110 -608 -43 -821 171 -95 96 -146 186 -214
380 -25 71 -77 95 -165 77z"/>
<path d="M2096 4664 c58 -139 188 -250 339 -290 64 -18 186 -18 250 0 137 36
263 136 322 256 18 36 30 66 29 68 -2 1 -57 -7 -122 -20 -102 -19 -152 -22
-354 -22 -201 0 -252 3 -352 22 -64 12 -119 22 -122 22 -3 0 2 -16 10 -36z"/>
</g>
</svg>
