<?xml version="1.0" standalone="no"?>
<!DOCTYPE svg PUBLIC "-//W3C//DTD SVG 20010904//EN"
 "http://www.w3.org/TR/2001/REC-SVG-20010904/DTD/svg10.dtd">
<svg version="1.0" xmlns="http://www.w3.org/2000/svg"
 width="512.000000pt" height="512.000000pt" viewBox="0 0 512.000000 512.000000"
 preserveAspectRatio="xMidYMid meet">

<g transform="translate(0.000000,512.000000) scale(0.100000,-0.100000)"
fill="#000000" stroke="none">
<path d="M1624 5109 c-88 -25 -199 -139 -260 -266 -36 -74 -64 -192 -64 -269
0 -59 27 -188 50 -241 l19 -43 -28 0 c-43 0 -205 43 -316 85 -100 37 -267 119
-443 216 -80 44 -104 53 -161 57 -89 6 -164 -16 -230 -68 -93 -74 -118 -143
-155 -425 -53 -398 -43 -897 24 -1288 l19 -112 -24 -50 c-124 -255 -24 -561
226 -695 99 -52 149 -60 404 -60 229 0 232 0 253 23 27 29 28 67 3 98 -19 24
-21 24 -268 29 -245 5 -249 5 -304 32 -76 38 -146 109 -183 188 -27 58 -31 75
-31 155 0 76 4 99 27 148 38 80 114 158 191 193 l62 29 652 3 c717 3 733 2
855 -57 35 -17 94 -53 133 -81 79 -58 182 -110 270 -136 56 -17 144 -19 1338
-21 1227 -3 1277 -4 1277 -22 0 -29 -36 -126 -67 -178 -40 -68 -128 -153 -199
-190 -126 -67 -9 -63 -1827 -63 l-1649 0 -30 -30 c-24 -25 -29 -36 -24 -58 4
-15 16 -35 28 -44 19 -17 93 -18 1249 -18 1018 0 1229 -2 1229 -13 0 -21 -40
-138 -62 -182 -34 -66 -105 -160 -154 -204 -54 -48 -133 -101 -148 -101 -6 0
-23 26 -38 59 -32 68 -92 132 -151 160 -23 11 -141 43 -262 71 -332 78 -259
93 -894 -188 -356 -158 -538 -243 -567 -267 -49 -41 -100 -135 -109 -206 -11
-73 12 -136 195 -549 152 -344 175 -390 217 -432 67 -68 129 -93 228 -92 l80
0 505 223 c278 123 521 231 540 241 64 33 116 102 227 300 131 234 132 237
139 309 6 52 -9 115 -49 211 -4 11 14 28 65 59 98 62 189 149 253 245 64 97
89 152 119 266 l23 85 379 6 379 5 79 28 c269 97 456 359 456 641 0 217 -93
423 -260 578 -86 79 -185 133 -359 192 -72 25 -189 67 -261 95 -140 53 -162
54 -194 8 -45 -64 -7 -95 219 -178 30 -11 29 -12 -80 -64 -222 -107 -459 -296
-601 -482 l-57 -74 -521 0 c-572 0 -602 3 -724 60 -36 17 -95 53 -132 80 -37
27 -100 65 -141 84 -127 61 -172 68 -407 73 -207 5 -212 5 -216 26 -57 278
-152 468 -329 654 -204 215 -497 354 -779 370 l-98 6 0 30 c0 39 28 232 42
282 23 89 93 140 182 133 40 -3 74 -18 151 -62 233 -134 457 -229 650 -274
149 -35 368 -37 490 -4 163 45 316 135 439 261 l59 60 101 -76 c56 -42 103
-78 105 -79 2 -2 -12 -27 -32 -56 -65 -95 -69 -188 -13 -280 54 -90 161 -146
258 -135 68 8 118 38 179 107 l54 61 110 -67 c61 -36 111 -68 113 -69 2 -2
-10 -24 -27 -50 -40 -62 -54 -132 -40 -193 28 -129 132 -214 261 -214 88 0
154 36 225 123 31 38 63 69 70 69 7 0 53 -20 101 -44 48 -24 96 -45 107 -47
39 -6 72 10 86 42 20 51 -1 77 -107 129 l-90 45 32 52 c38 64 48 124 30 192
-18 68 -51 114 -115 159 -47 33 -61 37 -127 40 -104 6 -161 -23 -239 -118 -32
-39 -59 -70 -61 -70 -11 0 -224 132 -224 138 0 5 11 24 25 43 14 19 33 58 42
88 37 128 -44 267 -184 317 -51 18 -88 17 -153 -2 -44 -13 -66 -28 -117 -81
-41 -44 -66 -62 -75 -57 -7 4 -66 48 -132 98 -105 81 -138 114 -292 297 -95
114 -187 217 -204 229 -62 44 -162 61 -236 39z m131 -151 c24 -11 309 -341
321 -372 6 -16 -120 -136 -197 -186 -74 -48 -175 -88 -261 -105 l-67 -12 -24
36 c-60 91 -88 228 -68 336 15 83 71 191 128 249 65 66 110 81 168 54z m1069
-535 c34 -25 59 -78 51 -111 -7 -34 -213 -280 -250 -300 -38 -20 -85 -8 -122
31 -38 40 -46 71 -28 111 16 38 208 266 238 284 28 16 79 9 111 -15z m711
-415 c32 -31 40 -54 37 -104 -2 -20 -220 -290 -251 -309 -50 -31 -104 -21
-150 28 -28 30 -33 97 -9 125 8 9 60 72 116 139 56 67 112 129 124 138 39 26
94 19 133 -17z m-3157 -124 c410 -84 737 -392 837 -787 l23 -92 -412 -5 c-395
-5 -413 -6 -470 -27 -33 -13 -77 -34 -99 -49 -22 -14 -43 -22 -47 -17 -10 10
-37 227 -50 403 -11 154 -13 401 -4 513 l7 77 69 0 c38 0 104 -7 146 -16z
m4310 -736 c88 -57 164 -143 212 -241 38 -77 71 -190 59 -202 -3 -3 -284 -4
-625 -3 l-619 3 85 89 c179 187 365 306 620 396 l105 38 50 -20 c27 -11 78
-38 113 -60z m-1870 -1553 c108 -25 209 -51 225 -57 47 -18 81 -69 152 -229
97 -218 99 -202 -44 -457 -71 -127 -125 -212 -145 -228 -17 -14 -256 -125
-531 -246 -457 -203 -505 -222 -557 -223 -60 0 -93 17 -130 66 -10 13 -93 193
-184 399 -184 415 -191 439 -146 512 29 46 35 49 597 298 388 171 478 208 518
209 27 1 137 -19 245 -44z"/>
<path d="M2726 1394 c-64 -20 -137 -93 -159 -159 -43 -125 3 -250 115 -314
106 -61 220 -47 309 36 204 191 4 523 -265 437z m160 -165 c57 -53 48 -138
-18 -179 -40 -24 -60 -25 -104 -4 -59 28 -80 95 -48 155 30 59 121 74 170 28z"/>
<path d="M2123 1118 c-25 -28 -213 -513 -213 -550 0 -31 41 -68 75 -68 13 0
32 8 43 18 20 17 222 524 222 557 0 9 -11 27 -25 40 -31 32 -75 33 -102 3z"/>
<path d="M1741 974 c-12 -15 -21 -34 -21 -44 0 -10 9 -29 21 -44 41 -52 129
-23 129 44 0 67 -88 96 -129 44z"/>
<path d="M2314 767 c-54 -47 -24 -127 47 -127 66 0 95 88 43 129 -34 27 -57
26 -90 -2z"/>
<path d="M1481 3604 c-17 -22 -21 -41 -21 -100 0 -40 5 -84 11 -98 23 -51 103
-55 128 -7 6 11 11 58 11 105 0 73 -3 89 -20 106 -30 30 -83 27 -109 -6z"/>
<path d="M2737 3612 c-13 -15 -17 -39 -17 -114 0 -82 3 -97 20 -113 28 -25 76
-23 103 4 19 19 22 32 22 110 0 73 -3 93 -19 110 -25 27 -86 29 -109 3z"/>
<path d="M1948 3490 c-24 -25 -29 -36 -23 -58 9 -39 51 -78 115 -110 105 -51
236 -31 323 50 47 45 52 95 11 127 -36 29 -49 27 -112 -16 -44 -31 -63 -38
-102 -38 -39 0 -55 6 -95 38 -27 20 -57 37 -67 37 -11 0 -33 -14 -50 -30z"/>
</g>
</svg>
