<?xml version="1.0" standalone="no"?>
<!DOCTYPE svg PUBLIC "-//W3C//DTD SVG 20010904//EN"
 "http://www.w3.org/TR/2001/REC-SVG-20010904/DTD/svg10.dtd">
<svg version="1.0" xmlns="http://www.w3.org/2000/svg"
 width="512.000000pt" height="512.000000pt" viewBox="0 0 512.000000 512.000000"
 preserveAspectRatio="xMidYMid meet">

<g transform="translate(0.000000,512.000000) scale(0.100000,-0.100000)"
fill="#000000" stroke="none">
<path d="M1135 4816 c-38 -17 -81 -67 -89 -103 -3 -16 -123 -899 -267 -1963
-251 -1860 -260 -1938 -250 -2010 23 -158 122 -295 263 -364 87 -43 127 -49
446 -72 279 -20 323 -16 438 41 88 43 175 133 214 220 15 33 170 477 345 988
175 510 321 927 325 927 4 0 150 -417 325 -927 175 -511 331 -956 347 -990 42
-91 124 -175 212 -218 115 -57 159 -61 438 -41 319 23 359 29 446 72 141 69
240 206 263 364 10 72 1 150 -250 2010 -144 1064 -264 1947 -267 1963 -8 37
-51 87 -91 103 -48 20 -2803 20 -2848 0z"/>
</g>
</svg>
