<?xml version="1.0" standalone="no"?>
<!DOCTYPE svg PUBLIC "-//W3C//DTD SVG 20010904//EN"
 "http://www.w3.org/TR/2001/REC-SVG-20010904/DTD/svg10.dtd">
<svg version="1.0" xmlns="http://www.w3.org/2000/svg"
 width="512.000000pt" height="512.000000pt" viewBox="0 0 512.000000 512.000000"
 preserveAspectRatio="xMidYMid meet">

<g transform="translate(0.000000,512.000000) scale(0.100000,-0.100000)"
fill="#000000" stroke="none">
<path d="M1599 4306 c-79 -28 -144 -106 -155 -185 -6 -47 -7 -48 -71 -76 -92
-40 -164 -110 -210 -203 l-38 -76 -3 -283 -3 -283 -363 0 c-425 0 -439 -2
-516 -80 -84 -83 -80 -30 -80 -1040 0 -1010 -4 -957 80 -1040 79 -80 82 -80
600 -80 518 0 521 0 600 80 75 74 80 100 80 437 l0 283 880 0 880 0 0 -40 c0
-29 -4 -40 -15 -40 -9 0 -27 -11 -40 -25 l-25 -24 0 -391 0 -391 25 -24 24
-25 271 0 271 0 24 25 25 24 0 391 0 391 -25 24 c-13 14 -31 25 -40 25 -11 0
-15 11 -15 40 l0 40 98 0 c53 0 120 6 148 14 154 41 270 162 303 316 9 41 11
268 9 866 l-3 810 -38 76 c-46 93 -118 163 -210 203 -64 28 -65 29 -71 76 -11
82 -85 167 -166 189 -45 13 -255 13 -300 0 -79 -22 -154 -106 -166 -186 l-6
-44 -638 0 -638 0 -6 44 c-12 80 -87 164 -166 186 -51 14 -268 12 -311 -4z
m296 -171 c14 -13 25 -31 25 -40 0 -13 -22 -15 -160 -15 -138 0 -160 2 -160
15 0 9 11 27 25 40 23 24 31 25 135 25 104 0 112 -1 135 -25z m1920 0 c14 -13
25 -31 25 -40 0 -13 -22 -15 -160 -15 -138 0 -160 2 -160 15 0 9 11 27 25 40
23 24 31 25 135 25 104 0 112 -1 135 -25z m199 -239 c50 -25 97 -72 122 -122
18 -36 19 -66 22 -394 l3 -355 -518 -109 c-285 -60 -523 -111 -530 -113 -6 -2
-14 5 -18 16 -13 41 -94 110 -147 126 -62 18 -381 21 -443 4 -56 -16 -116 -60
-145 -108 -14 -22 -29 -39 -35 -37 -10 3 -176 38 -584 124 l-224 47 -14 49
c-20 69 -93 140 -167 161 l-56 16 0 253 c0 270 5 302 52 366 24 33 73 68 123
87 22 9 339 11 1275 10 1209 -2 1246 -3 1284 -21z m-3534 -877 c0 -81 78 -184
156 -207 25 -7 105 -12 204 -12 99 0 179 5 204 12 79 24 156 126 156 208 0 21
3 22 51 18 38 -4 58 -12 77 -32 l27 -26 0 -900 0 -900 -28 -27 -27 -28 -460 0
-460 0 -27 28 -28 27 0 899 c0 885 0 899 20 921 26 28 51 39 98 39 31 1 37 -2
37 -20z m560 1 c0 -11 -9 -29 -20 -40 -18 -18 -33 -20 -180 -20 -147 0 -162 2
-180 20 -11 11 -20 29 -20 40 0 19 7 20 200 20 193 0 200 -1 200 -20z m3120
-527 c0 -366 0 -368 -24 -418 -31 -66 -65 -101 -128 -130 -45 -21 -68 -25
-149 -25 l-96 0 -5 49 c-3 28 -12 61 -21 75 -20 30 -205 172 -242 186 -68 26
-141 1 -189 -63 -18 -24 -22 -46 -24 -138 l-4 -109 -879 0 -879 0 0 445 c0
245 3 445 8 445 4 -1 183 -38 397 -84 l390 -82 6 -70 c7 -87 26 -132 79 -183
67 -65 106 -73 337 -69 172 3 203 6 237 22 88 44 136 121 145 230 l6 69 275
58 c151 32 363 76 470 99 107 22 211 45 230 49 19 5 41 9 48 10 9 1 12 -79 12
-366z m-1229 278 c28 -29 29 -32 29 -131 0 -99 -1 -102 -29 -131 l-29 -29
-182 0 -182 0 -29 29 c-28 29 -29 32 -29 131 0 99 1 102 29 131 l29 29 182 0
182 0 29 -29z m669 -951 l0 -140 -80 0 -80 0 0 200 0 201 80 -61 80 -61 0
-139z m80 -580 l0 -280 -160 0 -160 0 0 280 0 280 160 0 160 0 0 -280z"/>
<path d="M4025 1495 l-25 -24 0 -271 0 -271 25 -24 24 -25 431 0 431 0 24 25
25 24 0 271 0 271 -25 24 -24 25 -431 0 -431 0 -24 -25z m775 -295 l0 -160
-320 0 -320 0 0 160 0 160 320 0 320 0 0 -160z"/>
</g>
</svg>
