<?xml version="1.0" standalone="no"?>
<!DOCTYPE svg PUBLIC "-//W3C//DTD SVG 20010904//EN"
 "http://www.w3.org/TR/2001/REC-SVG-20010904/DTD/svg10.dtd">
<svg version="1.0" xmlns="http://www.w3.org/2000/svg"
 width="512.000000pt" height="512.000000pt" viewBox="0 0 512.000000 512.000000"
 preserveAspectRatio="xMidYMid meet">

<g transform="translate(0.000000,512.000000) scale(0.100000,-0.100000)"
fill="#000000" stroke="none">
<path d="M2385 5109 c-207 -26 -417 -127 -455 -218 -75 -181 359 -358 764
-312 267 31 481 135 501 244 35 184 -399 337 -810 286z"/>
<path d="M1721 4681 c-40 -78 -71 -196 -73 -276 -3 -76 28 -136 88 -171 32
-19 55 -24 111 -24 38 0 84 -5 102 -11 49 -17 75 -83 51 -130 -20 -36 -63 -49
-169 -49 -93 0 -116 -4 -293 -56 -106 -31 -220 -69 -253 -85 -118 -56 -216
-169 -255 -296 -17 -54 -20 -92 -20 -232 1 -300 68 -2846 75 -2866 16 -41 59
-88 99 -106 39 -18 93 -19 1376 -19 1283 0 1337 1 1376 19 40 18 83 65 99 106
7 20 74 2566 75 2866 0 140 -3 178 -20 232 -39 127 -137 240 -255 296 -33 16
-146 54 -251 85 -177 52 -198 56 -293 56 -137 0 -181 23 -181 95 0 66 50 95
161 95 91 0 148 29 180 93 39 76 21 218 -47 366 l-34 74 -39 -61 c-125 -192
-450 -305 -836 -289 -156 6 -221 16 -345 54 -172 51 -325 156 -377 258 l-21
39 -31 -63z m721 -691 c26 -27 30 -36 25 -68 -6 -38 -45 -82 -72 -82 -12 0
-15 -73 -17 -475 l-3 -475 -26 -26 c-36 -36 -92 -36 -128 0 l-26 26 -3 474 -3
474 -29 10 c-62 22 -75 111 -23 152 23 18 41 20 150 20 l125 0 30 -30z m541
10 c52 -41 39 -130 -23 -152 l-29 -10 -3 -474 -3 -474 -26 -26 c-36 -36 -92
-36 -128 0 l-26 26 -3 475 c-2 402 -5 475 -17 475 -27 0 -66 44 -72 82 -5 32
-1 41 25 68 l30 30 125 0 c109 0 127 -2 150 -20z m155 -1836 c93 -46 142 -125
157 -254 25 -213 104 -334 272 -419 83 -41 118 -74 156 -145 20 -38 22 -57 25
-248 4 -259 -4 -295 -81 -373 -92 -91 -16 -85 -1107 -85 -1091 0 -1015 -6
-1107 85 -77 78 -85 114 -81 373 3 191 5 210 25 248 37 69 72 102 141 135 180
86 256 193 288 412 18 123 49 194 105 238 74 59 67 58 635 59 l520 0 52 -26z"/>
<path d="M2041 1982 c-23 -22 -29 -39 -34 -97 -23 -243 -152 -447 -340 -540
-119 -59 -117 -54 -117 -267 0 -197 7 -226 57 -247 21 -8 273 -11 965 -9 l938
3 27 28 28 27 3 174 c5 226 3 230 -110 287 -112 56 -219 162 -271 269 -37 77
-77 219 -77 278 0 44 -24 98 -48 111 -14 8 -178 11 -507 11 l-487 0 -27 -28z"/>
<path d="M788 3620 c-54 -39 -109 -103 -141 -165 -8 -17 -156 -519 -329 -1115
-280 -972 -313 -1092 -313 -1155 1 -79 21 -127 76 -183 50 -51 89 -67 309
-122 165 -42 212 -50 249 -45 65 10 103 27 151 71 55 50 82 105 87 179 2 33
-9 587 -26 1230 -29 1148 -29 1237 -1 1310 18 48 10 47 -62 -5z"/>
<path d="M4260 3656 c0 -3 5 -17 10 -32 27 -71 27 -180 -2 -1314 -16 -641 -27
-1193 -25 -1227 9 -129 106 -228 241 -248 35 -6 85 3 247 45 111 28 219 60
239 70 90 46 159 168 148 264 -6 52 -625 2200 -645 2241 -32 62 -87 127 -141
165 -51 37 -72 47 -72 36z"/>
<path d="M65 768 c-2 -7 -13 -48 -24 -91 -14 -57 -16 -79 -8 -82 59 -20 510
-135 514 -131 7 6 43 148 43 169 0 11 -8 17 -23 17 -28 0 -429 105 -456 119
-26 14 -41 14 -46 -1z"/>
<path d="M5020 769 c-39 -16 -447 -119 -470 -119 -12 0 -20 -7 -20 -17 0 -21
36 -163 43 -170 5 -4 517 124 524 131 5 5 -41 186 -47 185 -3 0 -16 -5 -30
-10z"/>
<path d="M1280 90 l0 -90 1280 0 1280 0 0 90 0 90 -1280 0 -1280 0 0 -90z"/>
</g>
</svg>
