<?xml version="1.0" standalone="no"?>
<!DOCTYPE svg PUBLIC "-//W3C//DTD SVG 20010904//EN"
 "http://www.w3.org/TR/2001/REC-SVG-20010904/DTD/svg10.dtd">
<svg version="1.0" xmlns="http://www.w3.org/2000/svg"
 width="500.000000pt" height="500.000000pt" viewBox="0 0 500.000000 500.000000"
 preserveAspectRatio="xMidYMid meet">

<g transform="translate(0.000000,500.000000) scale(0.100000,-0.100000)"
fill="#000000" stroke="none">
<path d="M2369 4575 c-189 -46 -308 -166 -349 -353 l-14 -62 -191 0 c-104 0
-210 -5 -235 -11 -103 -24 -129 -84 -170 -399 -14 -110 -27 -206 -39 -300 -6
-41 -20 -145 -31 -230 -12 -85 -30 -216 -40 -290 -75 -533 -100 -730 -100
-806 0 -53 4 -67 34 -108 18 -26 43 -54 55 -62 12 -9 19 -20 16 -25 -4 -5 -61
-9 -129 -9 -68 0 -136 -4 -152 -9 -16 -5 -54 -14 -84 -19 -61 -12 -174 -36
-262 -56 -102 -22 -133 -76 -98 -167 32 -84 79 -129 136 -129 19 0 34 -2 34
-3 0 -2 -10 -48 -21 -103 -12 -54 -22 -126 -23 -159 -1 -51 3 -65 27 -97 53
-69 172 -92 222 -42 15 15 30 37 36 50 l9 24 42 -31 c55 -40 100 -37 220 15
l87 37 22 -20 c60 -56 169 -65 262 -21 38 18 50 20 62 10 12 -10 13 -16 4 -26
-6 -8 -17 -14 -24 -14 -19 0 -111 -97 -131 -138 -19 -41 -30 -127 -20 -166 3
-14 20 -41 36 -59 l29 -34 -24 -23 c-32 -30 -50 -88 -41 -133 7 -40 61 -94
125 -127 69 -35 197 -24 291 25 30 15 33 15 51 -1 49 -45 144 -56 190 -23 l30
21 44 -21 c27 -13 65 -21 96 -21 48 0 55 3 89 40 l36 39 32 -19 c24 -15 51
-20 101 -20 69 0 111 12 166 49 l30 21 20 -24 c35 -41 87 -66 137 -66 39 0 54
6 83 31 36 32 49 66 60 151 5 42 10 49 45 67 115 60 203 135 231 196 12 25 19
64 19 103 0 54 -4 70 -30 107 -16 24 -30 46 -30 48 0 3 18 8 40 12 22 4 59 19
82 35 l42 29 42 -39 c66 -61 172 -68 272 -17 30 15 55 27 57 27 2 0 14 -18 26
-40 38 -67 144 -100 204 -62 33 21 38 30 85 147 53 130 94 208 167 316 104
154 115 177 107 224 -3 22 -17 55 -31 73 -26 35 -89 72 -123 72 -36 0 -77 -28
-101 -67 -12 -21 -29 -46 -37 -56 -14 -16 -17 -15 -39 18 -13 19 -37 42 -53
50 -34 18 -103 20 -132 4 -14 -8 -27 -8 -42 -1 -11 6 -53 12 -93 14 -40 2 -74
6 -78 9 -3 3 6 30 19 60 51 111 52 127 22 340 -36 262 -92 668 -111 809 -8 63
-20 147 -25 185 -6 39 -15 99 -20 135 -4 36 -15 112 -23 170 -9 58 -21 152
-27 210 -16 147 -28 199 -57 243 -41 64 -69 71 -304 75 l-205 4 -12 58 c-17
79 -73 188 -123 237 -110 109 -326 160 -500 118z m206 -176 c126 -23 209 -98
231 -208 l7 -31 -312 0 c-171 0 -311 2 -311 5 0 2 9 28 20 58 35 92 104 153
199 173 73 16 95 16 166 3z m61 -1560 c81 -15 120 -41 150 -102 22 -42 25 -61
22 -108 -6 -79 -46 -137 -215 -309 -73 -74 -131 -135 -130 -136 1 -1 43 7 92
17 50 10 118 18 152 19 67 0 85 -13 113 -80 20 -49 2 -77 -49 -78 -23 0 -45
-3 -50 -6 -5 -4 -69 -18 -143 -32 -73 -14 -163 -34 -200 -46 -83 -25 -110 -19
-148 34 -32 44 -39 93 -18 131 26 50 116 159 211 257 141 145 208 232 192 248
-10 11 -134 -15 -182 -39 -26 -12 -69 -44 -97 -71 -28 -27 -57 -47 -65 -46
-23 5 -71 72 -77 110 -6 33 -2 39 62 104 77 77 151 119 234 133 77 12 79 12
146 0z m-709 -20 c66 -15 111 -38 118 -60 3 -9 -3 -91 -15 -181 -11 -89 -20
-170 -20 -178 0 -13 12 -15 73 -12 71 4 73 3 85 -22 15 -34 15 -89 0 -104 -7
-7 -26 -12 -43 -12 -16 -1 -52 -7 -80 -14 l-50 -13 -17 -129 c-9 -71 -17 -130
-17 -130 -5 -11 -41 -12 -67 -4 -57 19 -74 55 -74 154 l0 86 -32 -6 c-18 -3
-55 -10 -81 -15 -83 -16 -182 -12 -200 9 -22 24 -47 86 -47 114 0 34 75 141
228 327 35 42 75 96 89 121 49 86 59 90 150 69z m1339 -35 c82 -24 144 -70
179 -134 29 -52 30 -60 29 -170 -1 -126 -15 -184 -76 -295 -64 -118 -164 -185
-277 -185 -115 0 -194 47 -242 145 -37 76 -48 164 -30 257 32 166 102 284 213
357 69 47 112 52 204 25z m-760 -928 c3 -7 -8 -85 -25 -172 -17 -88 -38 -213
-47 -279 -10 -66 -23 -126 -30 -134 -8 -9 -22 -11 -38 -7 -31 8 -55 52 -107
196 -25 68 -38 95 -38 77 -1 -16 -5 -47 -10 -70 -5 -23 -15 -69 -22 -102 -12
-60 -32 -105 -47 -105 -5 0 -19 10 -31 22 -21 19 -23 27 -18 82 7 68 62 363
78 414 9 27 15 32 43 32 45 0 62 -23 77 -100 6 -36 22 -99 34 -140 l22 -75 10
40 c15 60 53 260 53 280 0 43 82 78 96 41z m1856 -42 c10 -21 6 -32 -35 -92
-78 -114 -215 -374 -256 -484 -12 -33 -50 -38 -76 -11 -23 23 -14 75 31 173
35 76 35 79 20 112 -29 63 -68 192 -73 244 -5 46 -3 53 16 59 11 3 33 0 47 -7
22 -11 32 -31 57 -110 17 -54 34 -98 39 -98 4 0 17 18 28 41 31 60 86 144 121
184 26 29 34 33 50 24 11 -6 25 -21 31 -35z m-2279 16 c18 -25 14 -69 -23
-305 -16 -99 -32 -204 -36 -233 -4 -29 -11 -55 -16 -58 -19 -12 -58 8 -74 38
-16 32 -16 61 4 154 l9 40 -49 -11 c-54 -12 -68 -26 -68 -67 0 -15 -5 -50 -11
-78 -12 -55 -27 -62 -68 -34 -22 16 -23 21 -16 83 l7 66 -30 -40 c-44 -60 -81
-91 -136 -115 -107 -48 -196 20 -196 150 0 95 75 274 155 367 31 36 42 43 73
43 85 0 122 -55 108 -158 -7 -50 -26 -72 -63 -72 -24 0 -26 5 -27 75 -1 27 -5
40 -15 40 -30 0 -131 -248 -131 -322 0 -26 4 -33 20 -33 25 0 81 31 147 82 29
22 58 38 65 36 24 -8 49 53 69 170 11 65 22 123 24 130 7 20 50 13 75 -13 24
-26 24 -29 -7 -179 -5 -24 -3 -27 13 -23 11 3 34 8 52 12 17 4 32 7 32 8 0 1
5 29 11 62 5 33 14 86 19 118 5 32 14 65 21 73 16 20 45 17 62 -6z m946 -7
c19 -17 20 -23 11 -78 -9 -56 -19 -106 -41 -200 -5 -22 -12 -60 -16 -84 l-6
-44 34 8 c19 5 56 9 83 9 46 1 51 -2 69 -32 10 -18 17 -39 14 -46 -3 -8 -65
-33 -137 -56 -107 -35 -136 -41 -155 -32 -33 15 -39 45 -21 100 21 63 65 279
76 371 11 96 40 124 89 84z m-1840 -27 c13 -12 24 -13 56 -4 22 6 79 13 128
15 76 4 87 2 87 -12 0 -38 -20 -53 -102 -75 -97 -26 -117 -35 -140 -64 -23
-28 -24 -60 -1 -52 62 24 173 17 173 -10 0 -42 -114 -104 -193 -104 -33 0 -48
-21 -55 -76 l-5 -45 29 7 c16 3 64 18 107 32 43 13 80 23 82 20 3 -2 8 -18 11
-35 5 -28 2 -32 -43 -60 -26 -16 -82 -43 -125 -60 -76 -31 -76 -31 -107 -12
-42 25 -57 84 -41 159 10 50 40 157 60 220 5 14 11 39 14 57 l5 32 -47 -15
c-26 -8 -57 -17 -69 -20 -12 -3 -26 -18 -32 -32 -21 -53 -49 -179 -60 -272
-16 -124 -31 -190 -42 -190 -25 0 -69 33 -75 55 -7 30 29 240 56 328 11 34 20
65 20 70 0 8 -62 1 -118 -13 -43 -11 -59 -4 -77 31 -24 45 -19 57 28 70 23 6
53 15 67 19 14 4 59 14 100 21 41 6 111 20 155 29 83 17 124 13 154 -14z
m2692 3 c26 -37 37 -112 19 -134 -15 -18 -51 -20 -68 -3 -7 7 -12 27 -12 45 0
102 -116 -55 -154 -208 -9 -36 -16 -80 -16 -97 0 -27 4 -32 24 -32 22 0 111
53 146 87 13 13 9 14 -32 8 -44 -7 -47 -6 -62 23 -9 17 -16 36 -16 42 0 19 84
49 157 56 64 6 71 5 91 -17 22 -23 30 -59 14 -59 -5 0 -21 -22 -35 -48 -43
-79 -85 -125 -149 -164 -70 -43 -110 -48 -167 -18 -69 35 -92 116 -66 231 21
93 75 196 138 265 49 53 50 54 107 54 54 0 60 -2 81 -31z m-1087 -8 c52 -30
68 -63 74 -144 7 -115 -27 -214 -101 -294 -70 -77 -123 -91 -198 -52 -125 63
-93 332 56 482 24 23 35 27 84 26 34 0 68 -7 85 -18z m649 4 c85 -35 116 -138
83 -274 -29 -120 -73 -188 -139 -216 -47 -19 -80 -19 -120 1 -66 35 -81 67
-81 174 1 116 32 205 98 277 42 46 53 53 86 53 21 0 54 -7 73 -15z m-238 -639
c42 -18 56 -31 84 -77 44 -71 18 -130 -89 -209 -38 -27 -93 -58 -122 -68 l-53
-18 -15 -98 c-17 -109 -30 -127 -77 -104 -47 23 -49 36 -24 180 46 267 47 275
28 296 -24 26 -22 79 3 92 59 32 196 34 265 6z m-779 -11 c19 -30 15 -96 -17
-285 -10 -63 -22 -155 -27 -205 l-7 -90 -37 -3 c-30 -3 -40 1 -54 23 -14 21
-15 39 -10 105 8 91 6 93 -74 68 -37 -12 -40 -16 -50 -63 -6 -27 -11 -68 -13
-90 -2 -35 -5 -40 -28 -43 -14 -2 -36 5 -49 16 -23 19 -23 20 -10 95 10 62 10
80 0 92 -11 13 -10 19 5 34 11 14 23 62 36 157 22 158 30 174 78 149 58 -29
60 -55 19 -198 -6 -20 -9 -39 -6 -42 4 -5 108 23 117 31 2 2 7 20 11 41 4 21
15 76 25 123 9 47 18 91 21 98 6 22 52 14 70 -13z m-463 -6 c59 -30 68 -73 38
-179 -15 -56 -21 -65 -43 -68 -16 -2 -34 6 -51 24 -32 32 -33 39 -7 82 26 43
10 42 -66 -4 -107 -65 -122 -92 -57 -109 14 -3 55 -20 90 -38 187 -90 148
-240 -74 -287 -57 -12 -108 2 -150 42 -30 28 -29 54 3 75 21 14 30 14 46 4 36
-23 173 18 185 55 2 7 -33 23 -84 39 -114 37 -146 56 -168 104 -14 32 -15 46
-7 70 19 55 61 98 132 135 121 64 171 77 213 55z m840 -34 c67 -54 81 -91 75
-185 -12 -161 -147 -330 -263 -330 -91 0 -161 81 -159 185 1 60 25 156 55 220
30 63 103 143 137 148 82 12 99 8 155 -38z"/>
<path d="M1820 2543 c-69 -79 -146 -191 -137 -200 8 -8 148 14 159 25 5 5 7
53 6 106 l-3 98 -25 -29z"/>
<path d="M3180 2632 c-47 -26 -114 -123 -139 -202 -33 -102 -25 -234 16 -277
6 -7 23 -13 38 -13 90 0 188 132 222 297 15 68 15 86 4 120 -28 84 -76 110
-141 75z"/>
<path d="M2691 1684 c-50 -35 -116 -238 -92 -283 40 -74 148 57 166 201 11 88
-19 120 -74 82z"/>
<path d="M3347 1692 c-47 -52 -78 -262 -43 -291 37 -31 130 119 130 214 1 80
-47 122 -87 77z"/>
<path d="M3064 1062 c-12 -8 -29 -162 -18 -162 4 0 29 14 56 31 52 34 98 82
98 104 0 24 -109 46 -136 27z"/>
<path d="M2677 1018 c-40 -22 -107 -185 -107 -259 0 -54 8 -69 39 -69 27 0 87
52 109 96 40 77 56 201 30 221 -20 16 -54 21 -71 11z"/>
</g>
</svg>
